<?xml version="1.0" encoding="UTF-8" standalone="no"?>
<!-- Created with Inkscape (http://www.inkscape.org/) -->

<svg
   xmlns:dc="http://purl.org/dc/elements/1.1/"
   xmlns:cc="http://creativecommons.org/ns#"
   xmlns:rdf="http://www.w3.org/1999/02/22-rdf-syntax-ns#"
   xmlns:svg="http://www.w3.org/2000/svg"
   xmlns="http://www.w3.org/2000/svg"
   xmlns:sodipodi="http://sodipodi.sourceforge.net/DTD/sodipodi-0.dtd"
   xmlns:inkscape="http://www.inkscape.org/namespaces/inkscape"
   width="765"
   height="990"
   id="svg2"
   version="1.1"
   inkscape:version="0.48.5 r10040"
   sodipodi:docname="main_aux_grids.svg">
  <sodipodi:namedview
     id="base"
     pagecolor="#ffffff"
     bordercolor="#666666"
     borderopacity="1.0"
     inkscape:pageopacity="0.0"
     inkscape:pageshadow="2"
     inkscape:zoom="7.620202"
     inkscape:cx="234.16058"
     inkscape:cy="694.20958"
     inkscape:document-units="px"
     inkscape:current-layer="layer1"
     showgrid="true"
     showguides="false"
     inkscape:snap-global="false"
     inkscape:snap-to-guides="false"
     inkscape:snap-bbox="true"
     inkscape:snap-bbox-midpoints="true"
     inkscape:snap-bbox-edge-midpoints="true"
     inkscape:window-width="1281"
     inkscape:window-height="1066"
     inkscape:window-x="277"
     inkscape:window-y="94"
     inkscape:window-maximized="0">
    <inkscape:grid
       spacingy="10px"
       spacingx="10px"
       snapvisiblegridlinesonly="true"
       enabled="true"
       visible="true"
       empspacing="5"
       id="grid2985"
       type="xygrid" />
  </sodipodi:namedview>
  <defs
     id="defs4">
    <marker
       style="overflow:visible"
       id="Arrow1Lstart"
       refX="0.0"
       refY="0.0"
       orient="auto"
       inkscape:stockid="Arrow1Lstart">
      <path
         transform="scale(0.8) translate(12.5,0)"
         style="fill-rule:evenodd;stroke:#000000;stroke-width:1.0pt"
         d="M 0.0,0.0 L 5.0,-5.0 L -12.5,0.0 L 5.0,5.0 L 0.0,0.0 z "
         id="path3948" />
    </marker>
    <marker
       style="overflow:visible;"
       id="Arrow1Lend"
       refX="0.0"
       refY="0.0"
       orient="auto"
       inkscape:stockid="Arrow1Lend">
      <path
         transform="scale(0.8) rotate(180) translate(12.5,0)"
         style="fill-rule:evenodd;stroke:#000000;stroke-width:1.0pt;"
         d="M 0.0,0.0 L 5.0,-5.0 L -12.5,0.0 L 5.0,5.0 L 0.0,0.0 z "
         id="path3951" />
    </marker>
    <inkscape:path-effect
       is_visible="true"
       id="path-effect2993"
       effect="spiro" />
    <inkscape:path-effect
       is_visible="true"
       id="path-effect2993-4"
       effect="spiro" />
    <inkscape:path-effect
       is_visible="true"
       id="path-effect2993-4-4"
       effect="spiro" />
    <inkscape:path-effect
       is_visible="true"
       id="path-effect2993-4-1"
       effect="spiro" />
    <inkscape:path-effect
       is_visible="true"
       id="path-effect2993-40"
       effect="spiro" />
    <inkscape:path-effect
       is_visible="true"
       id="path-effect2993-40-7"
       effect="spiro" />
    <inkscape:path-effect
       is_visible="true"
       id="path-effect2993-40-7-2"
       effect="spiro" />
    <inkscape:path-effect
       is_visible="true"
       id="path-effect2993-40-7-2-9"
       effect="spiro" />
  </defs>
  <metadata
     id="metadata7">
    <rdf:RDF>
      <cc:Work
         rdf:about="">
        <dc:format>image/svg+xml</dc:format>
        <dc:type
           rdf:resource="http://purl.org/dc/dcmitype/StillImage" />
        <dc:title />
      </cc:Work>
    </rdf:RDF>
  </metadata>
  <g
     transform="translate(0,-62.362183)"
     id="layer1"
     inkscape:groupmode="layer"
     inkscape:label="Layer 1">
    <path
       inkscape:connector-curvature="0"
       inkscape:original-d="m 150,282.72998 0,139.7644"
       inkscape:path-effect="#path-effect2993"
       id="path2991"
       d="m 150,282.72998 0,139.7644"
       style="fill:none;stroke:#000000;stroke-width:0.858;stroke-linecap:butt;stroke-linejoin:miter;stroke-miterlimit:4;stroke-opacity:1;stroke-dasharray:none;stroke-dashoffset:0" />
    <path
       inkscape:connector-curvature="0"
       inkscape:original-d="m 200.5,282.73129 0,140.26178"
       inkscape:path-effect="#path-effect2993-4"
       id="path2991-3"
       d="m 200.5,282.73129 0,140.26178"
       style="fill:none;stroke:#000000;stroke-width:0.859;stroke-linecap:butt;stroke-linejoin:miter;stroke-miterlimit:4;stroke-opacity:1;stroke-dasharray:none;stroke-dashoffset:0" />
    <path
       inkscape:connector-curvature="0"
       inkscape:original-d="m 249.5,282.73129 0,140.26179"
       inkscape:path-effect="#path-effect2993-4-4"
       id="path2991-3-8"
       d="m 249.5,282.73129 0,140.26179"
       style="fill:none;stroke:#000000;stroke-width:0.859;stroke-linecap:butt;stroke-linejoin:miter;stroke-miterlimit:4;stroke-opacity:1;stroke-dasharray:none;stroke-dashoffset:0" />
    <path
       inkscape:connector-curvature="0"
       inkscape:original-d="m 269.63351,402.86218 -139.26702,0"
       inkscape:path-effect="#path-effect2993-40"
       id="path2991-5"
       d="m 269.63351,402.86218 -139.26702,0"
       style="fill:none;stroke:#000000;stroke-width:0.856;stroke-linecap:butt;stroke-linejoin:miter;stroke-miterlimit:4;stroke-opacity:1;stroke-dasharray:none;stroke-dashoffset:0" />
    <path
       inkscape:connector-curvature="0"
       inkscape:original-d="m 269.63351,351.86218 -139.26702,0"
       inkscape:path-effect="#path-effect2993-40-7"
       id="path2991-5-0"
       d="m 269.63351,351.86218 -139.26702,0"
       style="fill:none;stroke:#000000;stroke-width:0.856;stroke-linecap:butt;stroke-linejoin:miter;stroke-miterlimit:4;stroke-opacity:1;stroke-dasharray:none;stroke-dashoffset:0" />
    <path
       inkscape:connector-curvature="0"
       inkscape:original-d="m 269.63351,302.86218 -139.26702,0"
       inkscape:path-effect="#path-effect2993-40-7-2"
       id="path2991-5-0-6"
       d="m 269.63351,302.86218 -139.26702,0"
       style="fill:none;stroke:#000000;stroke-width:0.856;stroke-linecap:butt;stroke-linejoin:miter;stroke-miterlimit:4;stroke-opacity:1;stroke-dasharray:none;stroke-dashoffset:0" />
    <path
       transform="matrix(0.03403649,0.05252241,-0.05521187,0.03237852,207.29836,340.10901)"
       d="m 150,200 c 0,22.09139 -17.90861,40 -40,40 -22.09139,0 -40,-17.90861 -40,-40 0,-22.09139 17.90861,-40 40,-40 22.09139,0 40,17.90861 40,40 z"
       sodipodi:ry="40"
       sodipodi:rx="40"
       sodipodi:cy="200"
       sodipodi:cx="110"
       id="path3898-76"
       style="fill:#000000;fill-opacity:1;stroke:#000000;stroke-width:1;stroke-miterlimit:4;stroke-opacity:1;stroke-dasharray:none;stroke-dashoffset:0"
       sodipodi:type="arc" />
    <path
       transform="matrix(0.03403649,0.05252241,-0.05521187,0.03237852,257.29836,340.10901)"
       d="m 150,200 c 0,22.09139 -17.90861,40 -40,40 -22.09139,0 -40,-17.90861 -40,-40 0,-22.09139 17.90861,-40 40,-40 22.09139,0 40,17.90861 40,40 z"
       sodipodi:ry="40"
       sodipodi:rx="40"
       sodipodi:cy="200"
       sodipodi:cx="110"
       id="path3898-76-7"
       style="fill:#000000;fill-opacity:1;stroke:#000000;stroke-width:1;stroke-miterlimit:4;stroke-opacity:1;stroke-dasharray:none;stroke-dashoffset:0"
       sodipodi:type="arc" />
    <path
       transform="matrix(0.03403649,0.05252241,-0.05521187,0.03237852,257.29836,290.10901)"
       d="m 150,200 c 0,22.09139 -17.90861,40 -40,40 -22.09139,0 -40,-17.90861 -40,-40 0,-22.09139 17.90861,-40 40,-40 22.09139,0 40,17.90861 40,40 z"
       sodipodi:ry="40"
       sodipodi:rx="40"
       sodipodi:cy="200"
       sodipodi:cx="110"
       id="path3898-76-8"
       style="fill:#000000;fill-opacity:1;stroke:#000000;stroke-width:1;stroke-miterlimit:4;stroke-opacity:1;stroke-dasharray:none;stroke-dashoffset:0"
       sodipodi:type="arc" />
    <path
       transform="matrix(0.03403649,0.05252241,-0.05521187,0.03237852,207.29836,290.10901)"
       d="m 150,200 c 0,22.09139 -17.90861,40 -40,40 -22.09139,0 -40,-17.90861 -40,-40 0,-22.09139 17.90861,-40 40,-40 22.09139,0 40,17.90861 40,40 z"
       sodipodi:ry="40"
       sodipodi:rx="40"
       sodipodi:cy="200"
       sodipodi:cx="110"
       id="path3898-76-0"
       style="fill:#000000;fill-opacity:1;stroke:#000000;stroke-width:1;stroke-miterlimit:4;stroke-opacity:1;stroke-dasharray:none;stroke-dashoffset:0"
       sodipodi:type="arc" />
    <path
       transform="matrix(0.03403649,0.05252241,-0.05521187,0.03237852,157.29836,290.10901)"
       d="m 150,200 c 0,22.09139 -17.90861,40 -40,40 -22.09139,0 -40,-17.90861 -40,-40 0,-22.09139 17.90861,-40 40,-40 22.09139,0 40,17.90861 40,40 z"
       sodipodi:ry="40"
       sodipodi:rx="40"
       sodipodi:cy="200"
       sodipodi:cx="110"
       id="path3898-76-6"
       style="fill:#000000;fill-opacity:1;stroke:#000000;stroke-width:1;stroke-miterlimit:4;stroke-opacity:1;stroke-dasharray:none;stroke-dashoffset:0"
       sodipodi:type="arc" />
    <path
       transform="matrix(0.03403649,0.05252241,-0.05521187,0.03237852,157.29836,340.10901)"
       d="m 150,200 c 0,22.09139 -17.90861,40 -40,40 -22.09139,0 -40,-17.90861 -40,-40 0,-22.09139 17.90861,-40 40,-40 22.09139,0 40,17.90861 40,40 z"
       sodipodi:ry="40"
       sodipodi:rx="40"
       sodipodi:cy="200"
       sodipodi:cx="110"
       id="path3898-76-5"
       style="fill:#000000;fill-opacity:1;stroke:#000000;stroke-width:1;stroke-miterlimit:4;stroke-opacity:1;stroke-dasharray:none;stroke-dashoffset:0"
       sodipodi:type="arc" />
    <path
       transform="matrix(0.03403649,0.05252241,-0.05521187,0.03237852,207.29836,390.10901)"
       d="m 150,200 c 0,22.09139 -17.90861,40 -40,40 -22.09139,0 -40,-17.90861 -40,-40 0,-22.09139 17.90861,-40 40,-40 22.09139,0 40,17.90861 40,40 z"
       sodipodi:ry="40"
       sodipodi:rx="40"
       sodipodi:cy="200"
       sodipodi:cx="110"
       id="path3898-76-91"
       style="fill:#000000;fill-opacity:1;stroke:#000000;stroke-width:1;stroke-miterlimit:4;stroke-opacity:1;stroke-dasharray:none;stroke-dashoffset:0"
       sodipodi:type="arc" />
    <path
       transform="matrix(0.03403649,0.05252241,-0.05521187,0.03237852,157.29836,390.10901)"
       d="m 150,200 c 0,22.09139 -17.90861,40 -40,40 -22.09139,0 -40,-17.90861 -40,-40 0,-22.09139 17.90861,-40 40,-40 22.09139,0 40,17.90861 40,40 z"
       sodipodi:ry="40"
       sodipodi:rx="40"
       sodipodi:cy="200"
       sodipodi:cx="110"
       id="path3898-76-47"
       style="fill:#000000;fill-opacity:1;stroke:#000000;stroke-width:1;stroke-miterlimit:4;stroke-opacity:1;stroke-dasharray:none;stroke-dashoffset:0"
       sodipodi:type="arc" />
    <path
       transform="matrix(0.03403649,0.05252241,-0.05521187,0.03237852,257.29836,390.10901)"
       d="m 150,200 c 0,22.09139 -17.90861,40 -40,40 -22.09139,0 -40,-17.90861 -40,-40 0,-22.09139 17.90861,-40 40,-40 22.09139,0 40,17.90861 40,40 z"
       sodipodi:ry="40"
       sodipodi:rx="40"
       sodipodi:cy="200"
       sodipodi:cx="110"
       id="path3898-76-31"
       style="fill:#000000;fill-opacity:1;stroke:#000000;stroke-width:1;stroke-miterlimit:4;stroke-opacity:1;stroke-dasharray:none;stroke-dashoffset:0"
       sodipodi:type="arc" />
    <path
       transform="matrix(0.03403649,0.05252241,-0.05521187,0.03237852,189.29836,340.10901)"
       d="m 150,200 c 0,22.09139 -17.90861,40 -40,40 -22.09139,0 -40,-17.90861 -40,-40 0,-22.09139 17.90861,-40 40,-40 22.09139,0 40,17.90861 40,40 z"
       sodipodi:ry="40"
       sodipodi:rx="40"
       sodipodi:cy="200"
       sodipodi:cx="110"
       id="path3898-76-4-7-2-21"
       style="fill:none;stroke:#000000;stroke-width:11.85570812;stroke-miterlimit:4;stroke-opacity:1;stroke-dasharray:none;stroke-dashoffset:0"
       sodipodi:type="arc" />
    <path
       transform="matrix(0.03403649,0.05252241,-0.05521187,0.03237852,225.29836,340.10901)"
       d="m 150,200 c 0,22.09139 -17.90861,40 -40,40 -22.09139,0 -40,-17.90861 -40,-40 0,-22.09139 17.90861,-40 40,-40 22.09139,0 40,17.90861 40,40 z"
       sodipodi:ry="40"
       sodipodi:rx="40"
       sodipodi:cy="200"
       sodipodi:cx="110"
       id="path3898-76-4-7-2-00"
       style="fill:none;stroke:#000000;stroke-width:11.85570812;stroke-miterlimit:4;stroke-opacity:1;stroke-dasharray:none;stroke-dashoffset:0"
       sodipodi:type="arc" />
    <path
       transform="matrix(0.03403649,0.05252241,-0.05521187,0.03237852,207.29836,322.10901)"
       d="m 150,200 c 0,22.09139 -17.90861,40 -40,40 -22.09139,0 -40,-17.90861 -40,-40 0,-22.09139 17.90861,-40 40,-40 22.09139,0 40,17.90861 40,40 z"
       sodipodi:ry="40"
       sodipodi:rx="40"
       sodipodi:cy="200"
       sodipodi:cx="110"
       id="path3898-76-4-7-2-917"
       style="fill:none;stroke:#000000;stroke-width:11.85570812;stroke-miterlimit:4;stroke-opacity:1;stroke-dasharray:none;stroke-dashoffset:0"
       sodipodi:type="arc" />
    <path
       transform="matrix(0.03403649,0.05252241,-0.05521187,0.03237852,207.29836,358.10901)"
       d="m 150,200 c 0,22.09139 -17.90861,40 -40,40 -22.09139,0 -40,-17.90861 -40,-40 0,-22.09139 17.90861,-40 40,-40 22.09139,0 40,17.90861 40,40 z"
       sodipodi:ry="40"
       sodipodi:rx="40"
       sodipodi:cy="200"
       sodipodi:cx="110"
       id="path3898-76-4-7-2-47"
       style="fill:none;stroke:#000000;stroke-width:11.85570812;stroke-miterlimit:4;stroke-opacity:1;stroke-dasharray:none;stroke-dashoffset:0"
       sodipodi:type="arc" />
    <rect
       y="334.97064"
       x="182.17896"
       height="35.398201"
       width="35.642117"
       id="rect3921"
       style="fill:none;stroke:#000000;stroke-width:0.76279092;stroke-miterlimit:4;stroke-opacity:1;stroke-dasharray:0.76279084, 1.52558168;stroke-dashoffset:0" />
    <path
       transform="translate(0,62.362183)"
       inkscape:connector-curvature="0"
       id="path3942"
       d="m 202.29028,313.16271 16.1461,0"
       style="fill:none;stroke:#000000;stroke-width:0.3;stroke-linecap:butt;stroke-linejoin:miter;stroke-opacity:1;marker-end:url(#Arrow1Lend);marker-start:url(#Arrow1Lstart);stroke-miterlimit:4;stroke-dasharray:none" />
    <path
       transform="translate(0,62.362183)"
       inkscape:connector-curvature="0"
       id="path4574"
       d="m 222.70489,307.4095 0,-15.03258"
       style="fill:none;stroke:#000000;stroke-width:0.3;stroke-linecap:butt;stroke-linejoin:miter;stroke-opacity:1;marker-start:url(#Arrow1Lstart);marker-end:url(#Arrow1Lend);stroke-miterlimit:4;stroke-dasharray:none" />
    <text
       xml:space="preserve"
       style="font-size:40px;font-style:normal;font-weight:normal;line-height:125%;letter-spacing:0px;word-spacing:0px;fill:#000000;fill-opacity:1;stroke:none;font-family:Bitstream Vera Sans"
       x="224.73409"
       y="363.50879"
       id="text3177"
       sodipodi:linespacing="125%"><tspan
         sodipodi:role="line"
         id="tspan3179"
         x="224.73409"
         y="363.50879"
         style="font-size:6px;font-style:normal;font-variant:normal;font-weight:normal;font-stretch:normal;text-align:start;line-height:125%;writing-mode:lr-tb;text-anchor:start;font-family:Sans;-inkscape-font-specification:Sans">$\delta x_2$</tspan></text>
    <text
       xml:space="preserve"
       style="font-size:40px;font-style:normal;font-weight:normal;line-height:125%;letter-spacing:0px;word-spacing:0px;fill:#000000;fill-opacity:1;stroke:none;font-family:Bitstream Vera Sans"
       x="207.82704"
       y="382.61502"
       id="text3177-2"
       sodipodi:linespacing="125%"><tspan
         sodipodi:role="line"
         id="tspan3179-6"
         x="207.82704"
         y="382.61502"
         style="font-size:6px;font-style:normal;font-variant:normal;font-weight:normal;font-stretch:normal;text-align:start;line-height:125%;writing-mode:lr-tb;text-anchor:start;font-family:Sans;-inkscape-font-specification:Sans">$\delta x_1$</tspan></text>
    <text
       xml:space="preserve"
       style="font-size:40px;font-style:normal;font-weight:normal;line-height:125%;letter-spacing:0px;word-spacing:0px;fill:#000000;fill-opacity:1;stroke:none;font-family:Bitstream Vera Sans"
       x="190.60806"
       y="359.85785"
       id="text3177-2-2"
       sodipodi:linespacing="125%"><tspan
         sodipodi:role="line"
         id="tspan3179-6-7"
         x="190.60806"
         y="359.85785"
         style="font-size:6px;font-style:normal;font-variant:normal;font-weight:normal;font-stretch:normal;text-align:start;line-height:125%;writing-mode:lr-tb;text-anchor:start;font-family:Sans;-inkscape-font-specification:Sans">$x_0$</tspan></text>
  </g>
</svg>
