<?xml version="1.0" encoding="UTF-8" standalone="no"?>
<!-- Created with Inkscape (http://www.inkscape.org/) -->

<svg
   xmlns:dc="http://purl.org/dc/elements/1.1/"
   xmlns:cc="http://creativecommons.org/ns#"
   xmlns:rdf="http://www.w3.org/1999/02/22-rdf-syntax-ns#"
   xmlns:svg="http://www.w3.org/2000/svg"
   xmlns="http://www.w3.org/2000/svg"
   xmlns:sodipodi="http://sodipodi.sourceforge.net/DTD/sodipodi-0.dtd"
   xmlns:inkscape="http://www.inkscape.org/namespaces/inkscape"
   width="765"
   height="990"
   id="svg2"
   version="1.1"
   inkscape:version="0.48.4 r9939"
   sodipodi:docname="graphic.pdf">
  <defs
     id="defs4">
    <inkscape:path-effect
       effect="spiro"
       id="path-effect2993"
       is_visible="true" />
    <inkscape:path-effect
       effect="spiro"
       id="path-effect2993-4"
       is_visible="true" />
    <inkscape:path-effect
       effect="spiro"
       id="path-effect2993-4-4"
       is_visible="true" />
    <inkscape:path-effect
       effect="spiro"
       id="path-effect2993-4-1"
       is_visible="true" />
    <inkscape:path-effect
       effect="spiro"
       id="path-effect2993-40"
       is_visible="true" />
    <inkscape:path-effect
       effect="spiro"
       id="path-effect2993-40-7"
       is_visible="true" />
    <inkscape:path-effect
       effect="spiro"
       id="path-effect2993-40-7-2"
       is_visible="true" />
    <inkscape:path-effect
       effect="spiro"
       id="path-effect2993-40-7-2-9"
       is_visible="true" />
  </defs>
  <sodipodi:namedview
     id="base"
     pagecolor="#ffffff"
     bordercolor="#666666"
     borderopacity="1.0"
     inkscape:pageopacity="0.0"
     inkscape:pageshadow="2"
     inkscape:zoom="3.810101"
     inkscape:cx="230.4371"
     inkscape:cy="722.81548"
     inkscape:document-units="px"
     inkscape:current-layer="layer1"
     showgrid="true"
     showguides="false"
     inkscape:snap-global="true"
     inkscape:snap-to-guides="false"
     inkscape:snap-bbox="true"
     inkscape:snap-bbox-midpoints="true"
     inkscape:snap-bbox-edge-midpoints="true"
     inkscape:window-width="1281"
     inkscape:window-height="1122"
     inkscape:window-x="924"
     inkscape:window-y="179"
     inkscape:window-maximized="0">
    <inkscape:grid
       type="xygrid"
       id="grid2985"
       empspacing="5"
       visible="true"
       enabled="true"
       snapvisiblegridlinesonly="true"
       spacingx="10px"
       spacingy="10px" />
  </sodipodi:namedview>
  <metadata
     id="metadata7">
    <rdf:RDF>
      <cc:Work
         rdf:about="">
        <dc:format>image/svg+xml</dc:format>
        <dc:type
           rdf:resource="http://purl.org/dc/dcmitype/StillImage" />
        <dc:title></dc:title>
      </cc:Work>
    </rdf:RDF>
  </metadata>
  <g
     inkscape:label="Layer 1"
     inkscape:groupmode="layer"
     id="layer1"
     transform="translate(0,-62.362183)">
    <path
       style="fill:none;stroke:#000000;stroke-width:1;stroke-linecap:butt;stroke-linejoin:miter;stroke-opacity:1;stroke-miterlimit:4;stroke-dasharray:1,2;stroke-dashoffset:0"
       d="m 150,170 0,190"
       id="path2991"
       inkscape:path-effect="#path-effect2993"
       inkscape:original-d="m 150,170 0,190"
       inkscape:connector-curvature="0"
       transform="translate(0,62.362183)" />
    <path
       style="fill:none;stroke:#000000;stroke-width:1;stroke-linecap:butt;stroke-linejoin:miter;stroke-opacity:1;stroke-miterlimit:4;stroke-dasharray:1,2;stroke-dashoffset:0"
       d="m 200.5,232.86218 0,190"
       id="path2991-3"
       inkscape:path-effect="#path-effect2993-4"
       inkscape:original-d="m 200.5,232.86218 0,190"
       inkscape:connector-curvature="0" />
    <path
       style="fill:none;stroke:#000000;stroke-width:1;stroke-linecap:butt;stroke-linejoin:miter;stroke-miterlimit:4;stroke-opacity:1;stroke-dasharray:1, 2;stroke-dashoffset:0"
       d="m 249.5,232.86219 0,190"
       id="path2991-3-8"
       inkscape:path-effect="#path-effect2993-4-4"
       inkscape:original-d="m 249.5,232.86219 0,190"
       inkscape:connector-curvature="0" />
    <path
       style="fill:none;stroke:#000000;stroke-width:1;stroke-linecap:butt;stroke-linejoin:miter;stroke-opacity:1;stroke-miterlimit:4;stroke-dasharray:1,2;stroke-dashoffset:0"
       d="m 300.5,232.86218 0,190"
       id="path2991-3-6"
       inkscape:path-effect="#path-effect2993-4-1"
       inkscape:original-d="m 300.5,232.86218 0,190"
       inkscape:connector-curvature="0" />
    <path
       style="fill:none;stroke:#000000;stroke-width:1;stroke-linecap:butt;stroke-linejoin:miter;stroke-opacity:1;stroke-miterlimit:4;stroke-dasharray:1,2;stroke-dashoffset:0"
       d="m 320.5,402.86218 -190,0"
       id="path2991-5"
       inkscape:path-effect="#path-effect2993-40"
       inkscape:original-d="m 320.5,402.86218 -190,0"
       inkscape:connector-curvature="0" />
    <path
       style="fill:none;stroke:#000000;stroke-width:1;stroke-linecap:butt;stroke-linejoin:miter;stroke-opacity:1;stroke-miterlimit:4;stroke-dasharray:1,2;stroke-dashoffset:0"
       d="m 320.5,351.86218 -190,0"
       id="path2991-5-0"
       inkscape:path-effect="#path-effect2993-40-7"
       inkscape:original-d="m 320.5,351.86218 -190,0"
       inkscape:connector-curvature="0" />
    <path
       style="fill:none;stroke:#000000;stroke-width:1;stroke-linecap:butt;stroke-linejoin:miter;stroke-opacity:1;stroke-miterlimit:4;stroke-dasharray:1,2;stroke-dashoffset:0"
       d="m 320.5,302.86218 -190,0"
       id="path2991-5-0-6"
       inkscape:path-effect="#path-effect2993-40-7-2"
       inkscape:original-d="m 320.5,302.86218 -190,0"
       inkscape:connector-curvature="0" />
    <path
       style="fill:none;stroke:#000000;stroke-width:1;stroke-linecap:butt;stroke-linejoin:miter;stroke-opacity:1;stroke-miterlimit:4;stroke-dasharray:1,2;stroke-dashoffset:0"
       d="m 320.5,252.86218 -190,0"
       id="path2991-5-0-6-9"
       inkscape:path-effect="#path-effect2993-40-7-2-9"
       inkscape:original-d="m 320.5,252.86218 -190,0"
       inkscape:connector-curvature="0" />
    <path
       sodipodi:type="arc"
       style="fill:#000000;fill-opacity:1;stroke:#000000;stroke-width:1;stroke-miterlimit:4;stroke-opacity:1;stroke-dasharray:none;stroke-dashoffset:0"
       id="path3898-76"
       sodipodi:cx="110"
       sodipodi:cy="200"
       sodipodi:rx="40"
       sodipodi:ry="40"
       d="m 150,200 a 40,40 0 1 1 -80,0 40,40 0 1 1 80,0 z"
       transform="matrix(0.03403649,0.05252241,-0.05521187,0.03237852,207.29836,340.10901)" />
    <path
       sodipodi:type="arc"
       style="fill:#000000;fill-opacity:1;stroke:#000000;stroke-width:1;stroke-miterlimit:4;stroke-opacity:1;stroke-dasharray:none;stroke-dashoffset:0"
       id="path3898-76-7"
       sodipodi:cx="110"
       sodipodi:cy="200"
       sodipodi:rx="40"
       sodipodi:ry="40"
       d="m 150,200 a 40,40 0 1 1 -80,0 40,40 0 1 1 80,0 z"
       transform="matrix(0.03403649,0.05252241,-0.05521187,0.03237852,257.29836,340.10901)" />
    <path
       sodipodi:type="arc"
       style="fill:#000000;fill-opacity:1;stroke:#000000;stroke-width:1;stroke-miterlimit:4;stroke-opacity:1;stroke-dasharray:none;stroke-dashoffset:0"
       id="path3898-76-8"
       sodipodi:cx="110"
       sodipodi:cy="200"
       sodipodi:rx="40"
       sodipodi:ry="40"
       d="m 150,200 a 40,40 0 1 1 -80,0 40,40 0 1 1 80,0 z"
       transform="matrix(0.03403649,0.05252241,-0.05521187,0.03237852,257.29836,290.10901)" />
    <path
       sodipodi:type="arc"
       style="fill:#000000;fill-opacity:1;stroke:#000000;stroke-width:1;stroke-miterlimit:4;stroke-opacity:1;stroke-dasharray:none;stroke-dashoffset:0"
       id="path3898-76-0"
       sodipodi:cx="110"
       sodipodi:cy="200"
       sodipodi:rx="40"
       sodipodi:ry="40"
       d="m 150,200 a 40,40 0 1 1 -80,0 40,40 0 1 1 80,0 z"
       transform="matrix(0.03403649,0.05252241,-0.05521187,0.03237852,207.29836,290.10901)" />
    <path
       sodipodi:type="arc"
       style="fill:#000000;fill-opacity:1;stroke:#000000;stroke-width:1;stroke-miterlimit:4;stroke-opacity:1;stroke-dasharray:none;stroke-dashoffset:0"
       id="path3898-76-9"
       sodipodi:cx="110"
       sodipodi:cy="200"
       sodipodi:rx="40"
       sodipodi:ry="40"
       d="m 150,200 a 40,40 0 1 1 -80,0 40,40 0 1 1 80,0 z"
       transform="matrix(0.03403649,0.05252241,-0.05521187,0.03237852,207.29836,240.10901)" />
    <path
       sodipodi:type="arc"
       style="fill:#000000;fill-opacity:1;stroke:#000000;stroke-width:1;stroke-miterlimit:4;stroke-opacity:1;stroke-dasharray:none;stroke-dashoffset:0"
       id="path3898-76-4"
       sodipodi:cx="110"
       sodipodi:cy="200"
       sodipodi:rx="40"
       sodipodi:ry="40"
       d="m 150,200 a 40,40 0 1 1 -80,0 40,40 0 1 1 80,0 z"
       transform="matrix(0.03403649,0.05252241,-0.05521187,0.03237852,257.29836,240.10901)" />
    <path
       sodipodi:type="arc"
       style="fill:#000000;fill-opacity:1;stroke:#000000;stroke-width:1;stroke-miterlimit:4;stroke-opacity:1;stroke-dasharray:none;stroke-dashoffset:0"
       id="path3898-76-90"
       sodipodi:cx="110"
       sodipodi:cy="200"
       sodipodi:rx="40"
       sodipodi:ry="40"
       d="m 150,200 a 40,40 0 1 1 -80,0 40,40 0 1 1 80,0 z"
       transform="matrix(0.03403649,0.05252241,-0.05521187,0.03237852,157.29836,240.10901)" />
    <path
       sodipodi:type="arc"
       style="fill:#000000;fill-opacity:1;stroke:#000000;stroke-width:1;stroke-miterlimit:4;stroke-opacity:1;stroke-dasharray:none;stroke-dashoffset:0"
       id="path3898-76-6"
       sodipodi:cx="110"
       sodipodi:cy="200"
       sodipodi:rx="40"
       sodipodi:ry="40"
       d="m 150,200 a 40,40 0 1 1 -80,0 40,40 0 1 1 80,0 z"
       transform="matrix(0.03403649,0.05252241,-0.05521187,0.03237852,157.29836,290.10901)" />
    <path
       sodipodi:type="arc"
       style="fill:#000000;fill-opacity:1;stroke:#000000;stroke-width:1;stroke-miterlimit:4;stroke-opacity:1;stroke-dasharray:none;stroke-dashoffset:0"
       id="path3898-76-5"
       sodipodi:cx="110"
       sodipodi:cy="200"
       sodipodi:rx="40"
       sodipodi:ry="40"
       d="m 150,200 a 40,40 0 1 1 -80,0 40,40 0 1 1 80,0 z"
       transform="matrix(0.03403649,0.05252241,-0.05521187,0.03237852,157.29836,340.10901)" />
    <path
       sodipodi:type="arc"
       style="fill:#000000;fill-opacity:1;stroke:#000000;stroke-width:1;stroke-miterlimit:4;stroke-opacity:1;stroke-dasharray:none;stroke-dashoffset:0"
       id="path3898-76-91"
       sodipodi:cx="110"
       sodipodi:cy="200"
       sodipodi:rx="40"
       sodipodi:ry="40"
       d="m 150,200 a 40,40 0 1 1 -80,0 40,40 0 1 1 80,0 z"
       transform="matrix(0.03403649,0.05252241,-0.05521187,0.03237852,207.29836,390.10901)" />
    <path
       sodipodi:type="arc"
       style="fill:#000000;fill-opacity:1;stroke:#000000;stroke-width:1;stroke-miterlimit:4;stroke-opacity:1;stroke-dasharray:none;stroke-dashoffset:0"
       id="path3898-76-47"
       sodipodi:cx="110"
       sodipodi:cy="200"
       sodipodi:rx="40"
       sodipodi:ry="40"
       d="m 150,200 a 40,40 0 1 1 -80,0 40,40 0 1 1 80,0 z"
       transform="matrix(0.03403649,0.05252241,-0.05521187,0.03237852,157.29836,390.10901)" />
    <path
       sodipodi:type="arc"
       style="fill:#000000;fill-opacity:1;stroke:#000000;stroke-width:1;stroke-miterlimit:4;stroke-opacity:1;stroke-dasharray:none;stroke-dashoffset:0"
       id="path3898-76-915"
       sodipodi:cx="110"
       sodipodi:cy="200"
       sodipodi:rx="40"
       sodipodi:ry="40"
       d="m 150,200 a 40,40 0 1 1 -80,0 40,40 0 1 1 80,0 z"
       transform="matrix(0.03403649,0.05252241,-0.05521187,0.03237852,307.29836,290.10901)" />
    <path
       sodipodi:type="arc"
       style="fill:#000000;fill-opacity:1;stroke:#000000;stroke-width:1;stroke-miterlimit:4;stroke-opacity:1;stroke-dasharray:none;stroke-dashoffset:0"
       id="path3898-76-3"
       sodipodi:cx="110"
       sodipodi:cy="200"
       sodipodi:rx="40"
       sodipodi:ry="40"
       d="m 150,200 a 40,40 0 1 1 -80,0 40,40 0 1 1 80,0 z"
       transform="matrix(0.03403649,0.05252241,-0.05521187,0.03237852,307.29836,340.10901)" />
    <path
       sodipodi:type="arc"
       style="fill:#000000;fill-opacity:1;stroke:#000000;stroke-width:1;stroke-miterlimit:4;stroke-opacity:1;stroke-dasharray:none;stroke-dashoffset:0"
       id="path3898-76-83"
       sodipodi:cx="110"
       sodipodi:cy="200"
       sodipodi:rx="40"
       sodipodi:ry="40"
       d="m 150,200 a 40,40 0 1 1 -80,0 40,40 0 1 1 80,0 z"
       transform="matrix(0.03403649,0.05252241,-0.05521187,0.03237852,307.29836,390.10901)" />
    <path
       sodipodi:type="arc"
       style="fill:#000000;fill-opacity:1;stroke:#000000;stroke-width:1;stroke-miterlimit:4;stroke-opacity:1;stroke-dasharray:none;stroke-dashoffset:0"
       id="path3898-76-31"
       sodipodi:cx="110"
       sodipodi:cy="200"
       sodipodi:rx="40"
       sodipodi:ry="40"
       d="m 150,200 a 40,40 0 1 1 -80,0 40,40 0 1 1 80,0 z"
       transform="matrix(0.03403649,0.05252241,-0.05521187,0.03237852,257.29836,390.10901)" />
    <path
       sodipodi:type="arc"
       style="fill:#000000;fill-opacity:1;stroke:#000000;stroke-width:1;stroke-miterlimit:4;stroke-opacity:1;stroke-dasharray:none;stroke-dashoffset:0"
       id="path3898-76-62"
       sodipodi:cx="110"
       sodipodi:cy="200"
       sodipodi:rx="40"
       sodipodi:ry="40"
       d="m 150,200 a 40,40 0 1 1 -80,0 40,40 0 1 1 80,0 z"
       transform="matrix(0.03403649,0.05252241,-0.05521187,0.03237852,307.29836,240.10901)" />
    <path
       sodipodi:type="arc"
       style="fill:none;stroke:#000000;stroke-width:11.85570812;stroke-miterlimit:4;stroke-opacity:1;stroke-dasharray:none;stroke-dashoffset:0"
       id="path3898-76-4-7"
       sodipodi:cx="110"
       sodipodi:cy="200"
       sodipodi:rx="40"
       sodipodi:ry="40"
       d="m 150,200 a 40,40 0 1 1 -80,0 40,40 0 1 1 80,0 z"
       transform="matrix(0.03403649,0.05252241,-0.05521187,0.03237852,247.29836,290.10901)" />
    <path
       sodipodi:type="arc"
       style="fill:none;stroke:#000000;stroke-width:11.85570812;stroke-miterlimit:4;stroke-opacity:1;stroke-dasharray:none;stroke-dashoffset:0"
       id="path3898-76-4-7-7"
       sodipodi:cx="110"
       sodipodi:cy="200"
       sodipodi:rx="40"
       sodipodi:ry="40"
       d="m 150,200 a 40,40 0 1 1 -80,0 40,40 0 1 1 80,0 z"
       transform="matrix(0.03403649,0.05252241,-0.05521187,0.03237852,257.29836,280.10901)" />
    <path
       sodipodi:type="arc"
       style="fill:none;stroke:#000000;stroke-width:11.85570812;stroke-miterlimit:4;stroke-opacity:1;stroke-dasharray:none;stroke-dashoffset:0"
       id="path3898-76-4-7-2"
       sodipodi:cx="110"
       sodipodi:cy="200"
       sodipodi:rx="40"
       sodipodi:ry="40"
       d="m 150,200 a 40,40 0 1 1 -80,0 40,40 0 1 1 80,0 z"
       transform="matrix(0.03403649,0.05252241,-0.05521187,0.03237852,267.29836,290.10901)" />
    <path
       sodipodi:type="arc"
       style="fill:none;stroke:#000000;stroke-width:11.85570812;stroke-miterlimit:4;stroke-opacity:1;stroke-dasharray:none;stroke-dashoffset:0"
       id="path3898-76-4-7-22"
       sodipodi:cx="110"
       sodipodi:cy="200"
       sodipodi:rx="40"
       sodipodi:ry="40"
       d="m 150,200 a 40,40 0 1 1 -80,0 40,40 0 1 1 80,0 z"
       transform="matrix(0.03403649,0.05252241,-0.05521187,0.03237852,257.29836,300.10901)" />
    <path
       sodipodi:type="arc"
       style="fill:none;stroke:#000000;stroke-width:11.85570812;stroke-miterlimit:4;stroke-opacity:1;stroke-dasharray:none;stroke-dashoffset:0"
       id="path3898-76-4-7-2-9"
       sodipodi:cx="110"
       sodipodi:cy="200"
       sodipodi:rx="40"
       sodipodi:ry="40"
       d="m 150,200 a 40,40 0 1 1 -80,0 40,40 0 1 1 80,0 z"
       transform="matrix(0.03403649,0.05252241,-0.05521187,0.03237852,197.29836,240.10901)" />
    <path
       sodipodi:type="arc"
       style="fill:none;stroke:#000000;stroke-width:11.85570812;stroke-miterlimit:4;stroke-opacity:1;stroke-dasharray:none;stroke-dashoffset:0"
       id="path3898-76-4-7-2-0"
       sodipodi:cx="110"
       sodipodi:cy="200"
       sodipodi:rx="40"
       sodipodi:ry="40"
       d="m 150,200 a 40,40 0 1 1 -80,0 40,40 0 1 1 80,0 z"
       transform="matrix(0.03403649,0.05252241,-0.05521187,0.03237852,167.29836,240.10901)" />
    <path
       sodipodi:type="arc"
       style="fill:none;stroke:#000000;stroke-width:11.85570812;stroke-miterlimit:4;stroke-opacity:1;stroke-dasharray:none;stroke-dashoffset:0"
       id="path3898-76-4-7-2-06"
       sodipodi:cx="110"
       sodipodi:cy="200"
       sodipodi:rx="40"
       sodipodi:ry="40"
       d="m 150,200 a 40,40 0 1 1 -80,0 40,40 0 1 1 80,0 z"
       transform="matrix(0.03403649,0.05252241,-0.05521187,0.03237852,157.29836,230.10901)" />
    <path
       sodipodi:type="arc"
       style="fill:none;stroke:#000000;stroke-width:11.85570812;stroke-miterlimit:4;stroke-opacity:1;stroke-dasharray:none;stroke-dashoffset:0"
       id="path3898-76-4-7-2-01"
       sodipodi:cx="110"
       sodipodi:cy="200"
       sodipodi:rx="40"
       sodipodi:ry="40"
       d="m 150,200 a 40,40 0 1 1 -80,0 40,40 0 1 1 80,0 z"
       transform="matrix(0.03403649,0.05252241,-0.05521187,0.03237852,147.29836,240.10901)" />
    <path
       sodipodi:type="arc"
       style="fill:none;stroke:#000000;stroke-width:11.85570812;stroke-miterlimit:4;stroke-opacity:1;stroke-dasharray:none;stroke-dashoffset:0"
       id="path3898-76-4-7-2-7"
       sodipodi:cx="110"
       sodipodi:cy="200"
       sodipodi:rx="40"
       sodipodi:ry="40"
       d="m 150,200 a 40,40 0 1 1 -80,0 40,40 0 1 1 80,0 z"
       transform="matrix(0.03403649,0.05252241,-0.05521187,0.03237852,147.29836,290.10901)" />
    <path
       sodipodi:type="arc"
       style="fill:none;stroke:#000000;stroke-width:11.85570812;stroke-miterlimit:4;stroke-opacity:1;stroke-dasharray:none;stroke-dashoffset:0"
       id="path3898-76-4-7-2-5"
       sodipodi:cx="110"
       sodipodi:cy="200"
       sodipodi:rx="40"
       sodipodi:ry="40"
       d="m 150,200 a 40,40 0 1 1 -80,0 40,40 0 1 1 80,0 z"
       transform="matrix(0.03403649,0.05252241,-0.05521187,0.03237852,147.29836,340.10901)" />
    <path
       sodipodi:type="arc"
       style="fill:none;stroke:#000000;stroke-width:11.85570812;stroke-miterlimit:4;stroke-opacity:1;stroke-dasharray:none;stroke-dashoffset:0"
       id="path3898-76-4-7-2-2"
       sodipodi:cx="110"
       sodipodi:cy="200"
       sodipodi:rx="40"
       sodipodi:ry="40"
       d="m 150,200 a 40,40 0 1 1 -80,0 40,40 0 1 1 80,0 z"
       transform="matrix(0.03403649,0.05252241,-0.05521187,0.03237852,147.29836,390.10901)" />
    <path
       sodipodi:type="arc"
       style="fill:none;stroke:#000000;stroke-width:11.85570812;stroke-miterlimit:4;stroke-opacity:1;stroke-dasharray:none;stroke-dashoffset:0"
       id="path3898-76-4-7-2-8"
       sodipodi:cx="110"
       sodipodi:cy="200"
       sodipodi:rx="40"
       sodipodi:ry="40"
       d="m 150,200 a 40,40 0 1 1 -80,0 40,40 0 1 1 80,0 z"
       transform="matrix(0.03403649,0.05252241,-0.05521187,0.03237852,157.29836,400.10901)" />
    <path
       sodipodi:type="arc"
       style="fill:none;stroke:#000000;stroke-width:11.85570812;stroke-miterlimit:4;stroke-opacity:1;stroke-dasharray:none;stroke-dashoffset:0"
       id="path3898-76-4-7-2-3"
       sodipodi:cx="110"
       sodipodi:cy="200"
       sodipodi:rx="40"
       sodipodi:ry="40"
       d="m 150,200 a 40,40 0 1 1 -80,0 40,40 0 1 1 80,0 z"
       transform="matrix(0.03403649,0.05252241,-0.05521187,0.03237852,157.29836,380.10901)" />
    <path
       sodipodi:type="arc"
       style="fill:none;stroke:#000000;stroke-width:11.85570812;stroke-miterlimit:4;stroke-opacity:1;stroke-dasharray:none;stroke-dashoffset:0"
       id="path3898-76-4-7-2-09"
       sodipodi:cx="110"
       sodipodi:cy="200"
       sodipodi:rx="40"
       sodipodi:ry="40"
       d="m 150,200 a 40,40 0 1 1 -80,0 40,40 0 1 1 80,0 z"
       transform="matrix(0.03403649,0.05252241,-0.05521187,0.03237852,157.29836,350.10901)" />
    <path
       sodipodi:type="arc"
       style="fill:none;stroke:#000000;stroke-width:11.85570812;stroke-miterlimit:4;stroke-opacity:1;stroke-dasharray:none;stroke-dashoffset:0"
       id="path3898-76-4-7-2-4"
       sodipodi:cx="110"
       sodipodi:cy="200"
       sodipodi:rx="40"
       sodipodi:ry="40"
       d="m 150,200 a 40,40 0 1 1 -80,0 40,40 0 1 1 80,0 z"
       transform="matrix(0.03403649,0.05252241,-0.05521187,0.03237852,157.29836,330.10901)" />
    <path
       sodipodi:type="arc"
       style="fill:none;stroke:#000000;stroke-width:11.85570812;stroke-miterlimit:4;stroke-opacity:1;stroke-dasharray:none;stroke-dashoffset:0"
       id="path3898-76-4-7-2-46"
       sodipodi:cx="110"
       sodipodi:cy="200"
       sodipodi:rx="40"
       sodipodi:ry="40"
       d="m 150,200 a 40,40 0 1 1 -80,0 40,40 0 1 1 80,0 z"
       transform="matrix(0.03403649,0.05252241,-0.05521187,0.03237852,157.29836,300.10901)" />
    <path
       sodipodi:type="arc"
       style="fill:none;stroke:#000000;stroke-width:11.85570812;stroke-miterlimit:4;stroke-opacity:1;stroke-dasharray:none;stroke-dashoffset:0"
       id="path3898-76-4-7-2-38"
       sodipodi:cx="110"
       sodipodi:cy="200"
       sodipodi:rx="40"
       sodipodi:ry="40"
       d="m 150,200 a 40,40 0 1 1 -80,0 40,40 0 1 1 80,0 z"
       transform="matrix(0.03403649,0.05252241,-0.05521187,0.03237852,157.29836,280.10901)" />
    <path
       sodipodi:type="arc"
       style="fill:none;stroke:#000000;stroke-width:11.85570812;stroke-miterlimit:4;stroke-opacity:1;stroke-dasharray:none;stroke-dashoffset:0"
       id="path3898-76-4-7-2-388"
       sodipodi:cx="110"
       sodipodi:cy="200"
       sodipodi:rx="40"
       sodipodi:ry="40"
       d="m 150,200 a 40,40 0 1 1 -80,0 40,40 0 1 1 80,0 z"
       transform="matrix(0.03403649,0.05252241,-0.05521187,0.03237852,157.29836,250.10901)" />
    <path
       sodipodi:type="arc"
       style="fill:none;stroke:#000000;stroke-width:11.85570812;stroke-miterlimit:4;stroke-opacity:1;stroke-dasharray:none;stroke-dashoffset:0"
       id="path3898-76-4-7-2-81"
       sodipodi:cx="110"
       sodipodi:cy="200"
       sodipodi:rx="40"
       sodipodi:ry="40"
       d="m 150,200 a 40,40 0 1 1 -80,0 40,40 0 1 1 80,0 z"
       transform="matrix(0.03403649,0.05252241,-0.05521187,0.03237852,207.29836,230.10901)" />
    <path
       sodipodi:type="arc"
       style="fill:none;stroke:#000000;stroke-width:11.85570812;stroke-miterlimit:4;stroke-opacity:1;stroke-dasharray:none;stroke-dashoffset:0"
       id="path3898-76-4-7-2-94"
       sodipodi:cx="110"
       sodipodi:cy="200"
       sodipodi:rx="40"
       sodipodi:ry="40"
       d="m 150,200 a 40,40 0 1 1 -80,0 40,40 0 1 1 80,0 z"
       transform="matrix(0.03403649,0.05252241,-0.05521187,0.03237852,207.29836,250.10901)" />
    <path
       sodipodi:type="arc"
       style="fill:none;stroke:#000000;stroke-width:11.85570812;stroke-miterlimit:4;stroke-opacity:1;stroke-dasharray:none;stroke-dashoffset:0"
       id="path3898-76-4-7-2-37"
       sodipodi:cx="110"
       sodipodi:cy="200"
       sodipodi:rx="40"
       sodipodi:ry="40"
       d="m 150,200 a 40,40 0 1 1 -80,0 40,40 0 1 1 80,0 z"
       transform="matrix(0.03403649,0.05252241,-0.05521187,0.03237852,207.29836,280.10901)" />
    <path
       sodipodi:type="arc"
       style="fill:none;stroke:#000000;stroke-width:11.85570812;stroke-miterlimit:4;stroke-opacity:1;stroke-dasharray:none;stroke-dashoffset:0"
       id="path3898-76-4-7-2-83"
       sodipodi:cx="110"
       sodipodi:cy="200"
       sodipodi:rx="40"
       sodipodi:ry="40"
       d="m 150,200 a 40,40 0 1 1 -80,0 40,40 0 1 1 80,0 z"
       transform="matrix(0.03403649,0.05252241,-0.05521187,0.03237852,207.29836,300.10901)" />
    <path
       sodipodi:type="arc"
       style="fill:none;stroke:#000000;stroke-width:11.85570812;stroke-miterlimit:4;stroke-opacity:1;stroke-dasharray:none;stroke-dashoffset:0"
       id="path3898-76-4-7-2-91"
       sodipodi:cx="110"
       sodipodi:cy="200"
       sodipodi:rx="40"
       sodipodi:ry="40"
       d="m 150,200 a 40,40 0 1 1 -80,0 40,40 0 1 1 80,0 z"
       transform="matrix(0.03403649,0.05252241,-0.05521187,0.03237852,197.29836,290.10901)" />
    <path
       sodipodi:type="arc"
       style="fill:none;stroke:#000000;stroke-width:11.85570812;stroke-miterlimit:4;stroke-opacity:1;stroke-dasharray:none;stroke-dashoffset:0"
       id="path3898-76-4-7-2-21"
       sodipodi:cx="110"
       sodipodi:cy="200"
       sodipodi:rx="40"
       sodipodi:ry="40"
       d="m 150,200 a 40,40 0 1 1 -80,0 40,40 0 1 1 80,0 z"
       transform="matrix(0.03403649,0.05252241,-0.05521187,0.03237852,197.29836,340.10901)" />
    <path
       sodipodi:type="arc"
       style="fill:none;stroke:#000000;stroke-width:11.85570812;stroke-miterlimit:4;stroke-opacity:1;stroke-dasharray:none;stroke-dashoffset:0"
       id="path3898-76-4-7-2-31"
       sodipodi:cx="110"
       sodipodi:cy="200"
       sodipodi:rx="40"
       sodipodi:ry="40"
       d="m 150,200 a 40,40 0 1 1 -80,0 40,40 0 1 1 80,0 z"
       transform="matrix(0.03403649,0.05252241,-0.05521187,0.03237852,197.29836,390.10901)" />
    <path
       sodipodi:type="arc"
       style="fill:none;stroke:#000000;stroke-width:11.85570812;stroke-miterlimit:4;stroke-opacity:1;stroke-dasharray:none;stroke-dashoffset:0"
       id="path3898-76-4-7-2-24"
       sodipodi:cx="110"
       sodipodi:cy="200"
       sodipodi:rx="40"
       sodipodi:ry="40"
       d="m 150,200 a 40,40 0 1 1 -80,0 40,40 0 1 1 80,0 z"
       transform="matrix(0.03403649,0.05252241,-0.05521187,0.03237852,207.29836,400.10901)" />
    <path
       sodipodi:type="arc"
       style="fill:none;stroke:#000000;stroke-width:11.85570812;stroke-miterlimit:4;stroke-opacity:1;stroke-dasharray:none;stroke-dashoffset:0"
       id="path3898-76-4-7-2-099"
       sodipodi:cx="110"
       sodipodi:cy="200"
       sodipodi:rx="40"
       sodipodi:ry="40"
       d="m 150,200 a 40,40 0 1 1 -80,0 40,40 0 1 1 80,0 z"
       transform="matrix(0.03403649,0.05252241,-0.05521187,0.03237852,207.29836,380.10901)" />
    <path
       sodipodi:type="arc"
       style="fill:none;stroke:#000000;stroke-width:11.85570812;stroke-miterlimit:4;stroke-opacity:1;stroke-dasharray:none;stroke-dashoffset:0"
       id="path3898-76-4-7-2-82"
       sodipodi:cx="110"
       sodipodi:cy="200"
       sodipodi:rx="40"
       sodipodi:ry="40"
       d="m 150,200 a 40,40 0 1 1 -80,0 40,40 0 1 1 80,0 z"
       transform="matrix(0.03403649,0.05252241,-0.05521187,0.03237852,167.29836,390.10901)" />
    <path
       sodipodi:type="arc"
       style="fill:none;stroke:#000000;stroke-width:11.85570812;stroke-miterlimit:4;stroke-opacity:1;stroke-dasharray:none;stroke-dashoffset:0"
       id="path3898-76-4-7-2-99"
       sodipodi:cx="110"
       sodipodi:cy="200"
       sodipodi:rx="40"
       sodipodi:ry="40"
       d="m 150,200 a 40,40 0 1 1 -80,0 40,40 0 1 1 80,0 z"
       transform="matrix(0.03403649,0.05252241,-0.05521187,0.03237852,167.29836,340.10901)" />
    <path
       sodipodi:type="arc"
       style="fill:none;stroke:#000000;stroke-width:11.85570812;stroke-miterlimit:4;stroke-opacity:1;stroke-dasharray:none;stroke-dashoffset:0"
       id="path3898-76-4-7-2-6"
       sodipodi:cx="110"
       sodipodi:cy="200"
       sodipodi:rx="40"
       sodipodi:ry="40"
       d="m 150,200 a 40,40 0 1 1 -80,0 40,40 0 1 1 80,0 z"
       transform="matrix(0.03403649,0.05252241,-0.05521187,0.03237852,167.29836,290.10901)" />
    <path
       sodipodi:type="arc"
       style="fill:none;stroke:#000000;stroke-width:11.85570812;stroke-miterlimit:4;stroke-opacity:1;stroke-dasharray:none;stroke-dashoffset:0"
       id="path3898-76-4-7-2-57"
       sodipodi:cx="110"
       sodipodi:cy="200"
       sodipodi:rx="40"
       sodipodi:ry="40"
       d="m 150,200 a 40,40 0 1 1 -80,0 40,40 0 1 1 80,0 z"
       transform="matrix(0.03403649,0.05252241,-0.05521187,0.03237852,217.29836,240.10901)" />
    <path
       sodipodi:type="arc"
       style="fill:none;stroke:#000000;stroke-width:11.85570812;stroke-miterlimit:4;stroke-opacity:1;stroke-dasharray:none;stroke-dashoffset:0"
       id="path3898-76-4-7-2-23"
       sodipodi:cx="110"
       sodipodi:cy="200"
       sodipodi:rx="40"
       sodipodi:ry="40"
       d="m 150,200 a 40,40 0 1 1 -80,0 40,40 0 1 1 80,0 z"
       transform="matrix(0.03403649,0.05252241,-0.05521187,0.03237852,217.29836,290.10901)" />
    <path
       sodipodi:type="arc"
       style="fill:none;stroke:#000000;stroke-width:11.85570812;stroke-miterlimit:4;stroke-opacity:1;stroke-dasharray:none;stroke-dashoffset:0"
       id="path3898-76-4-7-2-00"
       sodipodi:cx="110"
       sodipodi:cy="200"
       sodipodi:rx="40"
       sodipodi:ry="40"
       d="m 150,200 a 40,40 0 1 1 -80,0 40,40 0 1 1 80,0 z"
       transform="matrix(0.03403649,0.05252241,-0.05521187,0.03237852,217.29836,340.10901)" />
    <path
       sodipodi:type="arc"
       style="fill:none;stroke:#000000;stroke-width:11.85570812;stroke-miterlimit:4;stroke-opacity:1;stroke-dasharray:none;stroke-dashoffset:0"
       id="path3898-76-4-7-2-40"
       sodipodi:cx="110"
       sodipodi:cy="200"
       sodipodi:rx="40"
       sodipodi:ry="40"
       d="m 150,200 a 40,40 0 1 1 -80,0 40,40 0 1 1 80,0 z"
       transform="matrix(0.03403649,0.05252241,-0.05521187,0.03237852,217.29836,390.10901)" />
    <path
       sodipodi:type="arc"
       style="fill:none;stroke:#000000;stroke-width:11.85570812;stroke-miterlimit:4;stroke-opacity:1;stroke-dasharray:none;stroke-dashoffset:0"
       id="path3898-76-4-7-2-234"
       sodipodi:cx="110"
       sodipodi:cy="200"
       sodipodi:rx="40"
       sodipodi:ry="40"
       d="m 150,200 a 40,40 0 1 1 -80,0 40,40 0 1 1 80,0 z"
       transform="matrix(0.03403649,0.05252241,-0.05521187,0.03237852,247.29836,390.10901)" />
    <path
       sodipodi:type="arc"
       style="fill:none;stroke:#000000;stroke-width:11.85570812;stroke-miterlimit:4;stroke-opacity:1;stroke-dasharray:none;stroke-dashoffset:0"
       id="path3898-76-4-7-2-72"
       sodipodi:cx="110"
       sodipodi:cy="200"
       sodipodi:rx="40"
       sodipodi:ry="40"
       d="m 150,200 a 40,40 0 1 1 -80,0 40,40 0 1 1 80,0 z"
       transform="matrix(0.03403649,0.05252241,-0.05521187,0.03237852,247.29836,340.10901)" />
    <path
       sodipodi:type="arc"
       style="fill:none;stroke:#000000;stroke-width:11.85570812;stroke-miterlimit:4;stroke-opacity:1;stroke-dasharray:none;stroke-dashoffset:0"
       id="path3898-76-4-7-2-32"
       sodipodi:cx="110"
       sodipodi:cy="200"
       sodipodi:rx="40"
       sodipodi:ry="40"
       d="m 150,200 a 40,40 0 1 1 -80,0 40,40 0 1 1 80,0 z"
       transform="matrix(0.03403649,0.05252241,-0.05521187,0.03237852,247.29836,240.10901)" />
    <path
       sodipodi:type="arc"
       style="fill:none;stroke:#000000;stroke-width:11.85570812;stroke-miterlimit:4;stroke-opacity:1;stroke-dasharray:none;stroke-dashoffset:0"
       id="path3898-76-4-7-2-1"
       sodipodi:cx="110"
       sodipodi:cy="200"
       sodipodi:rx="40"
       sodipodi:ry="40"
       d="m 150,200 a 40,40 0 1 1 -80,0 40,40 0 1 1 80,0 z"
       transform="matrix(0.03403649,0.05252241,-0.05521187,0.03237852,257.29836,230.10901)" />
    <path
       sodipodi:type="arc"
       style="fill:none;stroke:#000000;stroke-width:11.85570812;stroke-miterlimit:4;stroke-opacity:1;stroke-dasharray:none;stroke-dashoffset:0"
       id="path3898-76-4-7-2-67"
       sodipodi:cx="110"
       sodipodi:cy="200"
       sodipodi:rx="40"
       sodipodi:ry="40"
       d="m 150,200 a 40,40 0 1 1 -80,0 40,40 0 1 1 80,0 z"
       transform="matrix(0.03403649,0.05252241,-0.05521187,0.03237852,257.29836,250.10901)" />
    <path
       sodipodi:type="arc"
       style="fill:none;stroke:#000000;stroke-width:11.85570812;stroke-miterlimit:4;stroke-opacity:1;stroke-dasharray:none;stroke-dashoffset:0"
       id="path3898-76-4-7-2-59"
       sodipodi:cx="110"
       sodipodi:cy="200"
       sodipodi:rx="40"
       sodipodi:ry="40"
       d="m 150,200 a 40,40 0 1 1 -80,0 40,40 0 1 1 80,0 z"
       transform="matrix(0.03403649,0.05252241,-0.05521187,0.03237852,257.29836,330.10901)" />
    <path
       sodipodi:type="arc"
       style="fill:none;stroke:#000000;stroke-width:11.85570812;stroke-miterlimit:4;stroke-opacity:1;stroke-dasharray:none;stroke-dashoffset:0"
       id="path3898-76-4-7-2-89"
       sodipodi:cx="110"
       sodipodi:cy="200"
       sodipodi:rx="40"
       sodipodi:ry="40"
       d="m 150,200 a 40,40 0 1 1 -80,0 40,40 0 1 1 80,0 z"
       transform="matrix(0.03403649,0.05252241,-0.05521187,0.03237852,257.29836,350.10901)" />
    <path
       sodipodi:type="arc"
       style="fill:none;stroke:#000000;stroke-width:11.85570812;stroke-miterlimit:4;stroke-opacity:1;stroke-dasharray:none;stroke-dashoffset:0"
       id="path3898-76-4-7-2-60"
       sodipodi:cx="110"
       sodipodi:cy="200"
       sodipodi:rx="40"
       sodipodi:ry="40"
       d="m 150,200 a 40,40 0 1 1 -80,0 40,40 0 1 1 80,0 z"
       transform="matrix(0.03403649,0.05252241,-0.05521187,0.03237852,257.29836,380.10901)" />
    <path
       sodipodi:type="arc"
       style="fill:none;stroke:#000000;stroke-width:11.85570812;stroke-miterlimit:4;stroke-opacity:1;stroke-dasharray:none;stroke-dashoffset:0"
       id="path3898-76-4-7-2-85"
       sodipodi:cx="110"
       sodipodi:cy="200"
       sodipodi:rx="40"
       sodipodi:ry="40"
       d="m 150,200 a 40,40 0 1 1 -80,0 40,40 0 1 1 80,0 z"
       transform="matrix(0.03403649,0.05252241,-0.05521187,0.03237852,257.29836,400.10901)" />
    <path
       sodipodi:type="arc"
       style="fill:none;stroke:#000000;stroke-width:11.85570812;stroke-miterlimit:4;stroke-opacity:1;stroke-dasharray:none;stroke-dashoffset:0"
       id="path3898-76-4-7-2-92"
       sodipodi:cx="110"
       sodipodi:cy="200"
       sodipodi:rx="40"
       sodipodi:ry="40"
       d="m 150,200 a 40,40 0 1 1 -80,0 40,40 0 1 1 80,0 z"
       transform="matrix(0.03403649,0.05252241,-0.05521187,0.03237852,267.29836,390.10901)" />
    <path
       sodipodi:type="arc"
       style="fill:none;stroke:#000000;stroke-width:11.85570812;stroke-miterlimit:4;stroke-opacity:1;stroke-dasharray:none;stroke-dashoffset:0"
       id="path3898-76-4-7-2-400"
       sodipodi:cx="110"
       sodipodi:cy="200"
       sodipodi:rx="40"
       sodipodi:ry="40"
       d="m 150,200 a 40,40 0 1 1 -80,0 40,40 0 1 1 80,0 z"
       transform="matrix(0.03403649,0.05252241,-0.05521187,0.03237852,267.29836,340.10901)" />
    <path
       sodipodi:type="arc"
       style="fill:none;stroke:#000000;stroke-width:11.85570812;stroke-miterlimit:4;stroke-opacity:1;stroke-dasharray:none;stroke-dashoffset:0"
       id="path3898-76-4-7-2-98"
       sodipodi:cx="110"
       sodipodi:cy="200"
       sodipodi:rx="40"
       sodipodi:ry="40"
       d="m 150,200 a 40,40 0 1 1 -80,0 40,40 0 1 1 80,0 z"
       transform="matrix(0.03403649,0.05252241,-0.05521187,0.03237852,267.29836,240.10901)" />
    <path
       sodipodi:type="arc"
       style="fill:none;stroke:#000000;stroke-width:11.85570812;stroke-miterlimit:4;stroke-opacity:1;stroke-dasharray:none;stroke-dashoffset:0"
       id="path3898-76-4-7-2-25"
       sodipodi:cx="110"
       sodipodi:cy="200"
       sodipodi:rx="40"
       sodipodi:ry="40"
       d="m 150,200 a 40,40 0 1 1 -80,0 40,40 0 1 1 80,0 z"
       transform="matrix(0.03403649,0.05252241,-0.05521187,0.03237852,297.29836,240.10901)" />
    <path
       sodipodi:type="arc"
       style="fill:none;stroke:#000000;stroke-width:11.85570812;stroke-miterlimit:4;stroke-opacity:1;stroke-dasharray:none;stroke-dashoffset:0"
       id="path3898-76-4-7-2-05"
       sodipodi:cx="110"
       sodipodi:cy="200"
       sodipodi:rx="40"
       sodipodi:ry="40"
       d="m 150,200 a 40,40 0 1 1 -80,0 40,40 0 1 1 80,0 z"
       transform="matrix(0.03403649,0.05252241,-0.05521187,0.03237852,297.29836,290.10901)" />
    <path
       sodipodi:type="arc"
       style="fill:none;stroke:#000000;stroke-width:11.85570812;stroke-miterlimit:4;stroke-opacity:1;stroke-dasharray:none;stroke-dashoffset:0"
       id="path3898-76-4-7-2-917"
       sodipodi:cx="110"
       sodipodi:cy="200"
       sodipodi:rx="40"
       sodipodi:ry="40"
       d="m 150,200 a 40,40 0 1 1 -80,0 40,40 0 1 1 80,0 z"
       transform="matrix(0.03403649,0.05252241,-0.05521187,0.03237852,207.29836,330.10901)" />
    <path
       sodipodi:type="arc"
       style="fill:none;stroke:#000000;stroke-width:11.85570812;stroke-miterlimit:4;stroke-opacity:1;stroke-dasharray:none;stroke-dashoffset:0"
       id="path3898-76-4-7-2-47"
       sodipodi:cx="110"
       sodipodi:cy="200"
       sodipodi:rx="40"
       sodipodi:ry="40"
       d="m 150,200 a 40,40 0 1 1 -80,0 40,40 0 1 1 80,0 z"
       transform="matrix(0.03403649,0.05252241,-0.05521187,0.03237852,207.29836,350.10901)" />
    <path
       sodipodi:type="arc"
       style="fill:none;stroke:#000000;stroke-width:11.85570812;stroke-miterlimit:4;stroke-opacity:1;stroke-dasharray:none;stroke-dashoffset:0"
       id="path3898-76-4-7-2-672"
       sodipodi:cx="110"
       sodipodi:cy="200"
       sodipodi:rx="40"
       sodipodi:ry="40"
       d="m 150,200 a 40,40 0 1 1 -80,0 40,40 0 1 1 80,0 z"
       transform="matrix(0.03403649,0.05252241,-0.05521187,0.03237852,297.29836,390.10901)" />
    <path
       sodipodi:type="arc"
       style="fill:none;stroke:#000000;stroke-width:11.85570812;stroke-miterlimit:4;stroke-opacity:1;stroke-dasharray:none;stroke-dashoffset:0"
       id="path3898-76-4-7-2-88"
       sodipodi:cx="110"
       sodipodi:cy="200"
       sodipodi:rx="40"
       sodipodi:ry="40"
       d="m 150,200 a 40,40 0 1 1 -80,0 40,40 0 1 1 80,0 z"
       transform="matrix(0.03403649,0.05252241,-0.05521187,0.03237852,297.29836,340.10901)" />
    <path
       sodipodi:type="arc"
       style="fill:none;stroke:#000000;stroke-width:11.85570812;stroke-miterlimit:4;stroke-opacity:1;stroke-dasharray:none;stroke-dashoffset:0"
       id="path3898-76-4-7-2-58"
       sodipodi:cx="110"
       sodipodi:cy="200"
       sodipodi:rx="40"
       sodipodi:ry="40"
       d="m 150,200 a 40,40 0 1 1 -80,0 40,40 0 1 1 80,0 z"
       transform="matrix(0.03403649,0.05252241,-0.05521187,0.03237852,307.29836,400.10901)" />
    <path
       sodipodi:type="arc"
       style="fill:none;stroke:#000000;stroke-width:11.85570812;stroke-miterlimit:4;stroke-opacity:1;stroke-dasharray:none;stroke-dashoffset:0"
       id="path3898-76-4-7-2-84"
       sodipodi:cx="110"
       sodipodi:cy="200"
       sodipodi:rx="40"
       sodipodi:ry="40"
       d="m 150,200 a 40,40 0 1 1 -80,0 40,40 0 1 1 80,0 z"
       transform="matrix(0.03403649,0.05252241,-0.05521187,0.03237852,307.29836,380.10901)" />
    <path
       sodipodi:type="arc"
       style="fill:none;stroke:#000000;stroke-width:11.85570812;stroke-miterlimit:4;stroke-opacity:1;stroke-dasharray:none;stroke-dashoffset:0"
       id="path3898-76-4-7-2-48"
       sodipodi:cx="110"
       sodipodi:cy="200"
       sodipodi:rx="40"
       sodipodi:ry="40"
       d="m 150,200 a 40,40 0 1 1 -80,0 40,40 0 1 1 80,0 z"
       transform="matrix(0.03403649,0.05252241,-0.05521187,0.03237852,307.29836,330.10901)" />
    <path
       sodipodi:type="arc"
       style="fill:none;stroke:#000000;stroke-width:11.85570812;stroke-miterlimit:4;stroke-opacity:1;stroke-dasharray:none;stroke-dashoffset:0"
       id="path3898-76-4-7-2-41"
       sodipodi:cx="110"
       sodipodi:cy="200"
       sodipodi:rx="40"
       sodipodi:ry="40"
       d="m 150,200 a 40,40 0 1 1 -80,0 40,40 0 1 1 80,0 z"
       transform="matrix(0.03403649,0.05252241,-0.05521187,0.03237852,307.29836,350.10901)" />
    <path
       sodipodi:type="arc"
       style="fill:none;stroke:#000000;stroke-width:11.85570812;stroke-miterlimit:4;stroke-opacity:1;stroke-dasharray:none;stroke-dashoffset:0"
       id="path3898-76-4-7-2-985"
       sodipodi:cx="110"
       sodipodi:cy="200"
       sodipodi:rx="40"
       sodipodi:ry="40"
       d="m 150,200 a 40,40 0 1 1 -80,0 40,40 0 1 1 80,0 z"
       transform="matrix(0.03403649,0.05252241,-0.05521187,0.03237852,307.29836,300.10901)" />
    <path
       sodipodi:type="arc"
       style="fill:none;stroke:#000000;stroke-width:11.85570812;stroke-miterlimit:4;stroke-opacity:1;stroke-dasharray:none;stroke-dashoffset:0"
       id="path3898-76-4-7-2-096"
       sodipodi:cx="110"
       sodipodi:cy="200"
       sodipodi:rx="40"
       sodipodi:ry="40"
       d="m 150,200 a 40,40 0 1 1 -80,0 40,40 0 1 1 80,0 z"
       transform="matrix(0.03403649,0.05252241,-0.05521187,0.03237852,307.29836,280.10901)" />
    <path
       sodipodi:type="arc"
       style="fill:none;stroke:#000000;stroke-width:11.85570812;stroke-miterlimit:4;stroke-opacity:1;stroke-dasharray:none;stroke-dashoffset:0"
       id="path3898-76-4-7-2-03"
       sodipodi:cx="110"
       sodipodi:cy="200"
       sodipodi:rx="40"
       sodipodi:ry="40"
       d="m 150,200 a 40,40 0 1 1 -80,0 40,40 0 1 1 80,0 z"
       transform="matrix(0.03403649,0.05252241,-0.05521187,0.03237852,307.29836,250.10901)" />
    <path
       sodipodi:type="arc"
       style="fill:none;stroke:#000000;stroke-width:11.85570812;stroke-miterlimit:4;stroke-opacity:1;stroke-dasharray:none;stroke-dashoffset:0"
       id="path3898-76-4-7-2-328"
       sodipodi:cx="110"
       sodipodi:cy="200"
       sodipodi:rx="40"
       sodipodi:ry="40"
       d="m 150,200 a 40,40 0 1 1 -80,0 40,40 0 1 1 80,0 z"
       transform="matrix(0.03403649,0.05252241,-0.05521187,0.03237852,307.29836,230.10901)" />
    <path
       sodipodi:type="arc"
       style="fill:none;stroke:#000000;stroke-width:11.85570812;stroke-miterlimit:4;stroke-opacity:1;stroke-dasharray:none;stroke-dashoffset:0"
       id="path3898-76-4-7-2-43"
       sodipodi:cx="110"
       sodipodi:cy="200"
       sodipodi:rx="40"
       sodipodi:ry="40"
       d="m 150,200 a 40,40 0 1 1 -80,0 40,40 0 1 1 80,0 z"
       transform="matrix(0.03403649,0.05252241,-0.05521187,0.03237852,317.29836,240.10901)" />
    <path
       sodipodi:type="arc"
       style="fill:none;stroke:#000000;stroke-width:11.85570812;stroke-miterlimit:4;stroke-opacity:1;stroke-dasharray:none;stroke-dashoffset:0"
       id="path3898-76-4-7-2-79"
       sodipodi:cx="110"
       sodipodi:cy="200"
       sodipodi:rx="40"
       sodipodi:ry="40"
       d="m 150,200 a 40,40 0 1 1 -80,0 40,40 0 1 1 80,0 z"
       transform="matrix(0.03403649,0.05252241,-0.05521187,0.03237852,317.29836,290.10901)" />
    <path
       sodipodi:type="arc"
       style="fill:none;stroke:#000000;stroke-width:11.85570812;stroke-miterlimit:4;stroke-opacity:1;stroke-dasharray:none;stroke-dashoffset:0"
       id="path3898-76-4-7-2-36"
       sodipodi:cx="110"
       sodipodi:cy="200"
       sodipodi:rx="40"
       sodipodi:ry="40"
       d="m 150,200 a 40,40 0 1 1 -80,0 40,40 0 1 1 80,0 z"
       transform="matrix(0.03403649,0.05252241,-0.05521187,0.03237852,317.29836,340.10901)" />
    <path
       sodipodi:type="arc"
       style="fill:none;stroke:#000000;stroke-width:11.85570812;stroke-miterlimit:4;stroke-opacity:1;stroke-dasharray:none;stroke-dashoffset:0"
       id="path3898-76-4-7-2-65"
       sodipodi:cx="110"
       sodipodi:cy="200"
       sodipodi:rx="40"
       sodipodi:ry="40"
       d="m 150,200 a 40,40 0 1 1 -80,0 40,40 0 1 1 80,0 z"
       transform="matrix(0.03403649,0.05252241,-0.05521187,0.03237852,317.29836,390.10901)" />
  </g>
</svg>
